<svg xmlns="http://www.w3.org/2000/svg" width="374.129" height="444.841" viewBox="0 0 374.129 444.841">
  <g id="login_art" transform="translate(0.24 0)">
    <circle id="Ellipse_9" data-name="Ellipse 9" cx="41.469" cy="41.469" r="41.469" transform="translate(52.317 40.332)" fill="#3f3d56"/>
    <circle id="Ellipse_10" data-name="Ellipse 10" cx="41.469" cy="41.469" r="41.469" transform="translate(290.221 54.155)" fill="#3f3d56"/>
    <path id="Path_19" data-name="Path 19" d="M785.859,216.718A41.467,41.467,0,0,0,748.1,241.045a41.463,41.463,0,0,1,65.331,48.108,41.463,41.463,0,0,0-27.573-72.435Z" transform="translate(-453.442 -164.018)" fill="#2196f3"/>
    <path id="Path_20" data-name="Path 20" d="M455.469,197.718a41.466,41.466,0,0,1,37.758,24.327A41.463,41.463,0,0,0,427.9,270.153a41.463,41.463,0,0,1,27.573-72.435Z" transform="translate(-362.41 -158.841)" fill="#2196f3"/>
    <path id="Path_21" data-name="Path 21" d="M556.83,500.665a106.587,106.587,0,1,1-31.218-75.729A107.035,107.035,0,0,1,556.83,500.665Z" transform="translate(-343 -212.244)" fill="#3f3d56"/>
    <path id="Path_22" data-name="Path 22" d="M586.593,500.665a106.586,106.586,0,0,1-9.611,44.372A126.679,126.679,0,0,1,453.84,396.853,107.035,107.035,0,0,1,586.594,500.665Z" transform="translate(-372.764 -212.244)" fill="#2196f3"/>
    <circle id="Ellipse_11" data-name="Ellipse 11" cx="126.591" cy="126.591" r="126.591" transform="translate(79.236 63.613)" fill="#3f3d56"/>
    <path id="Path_23" data-name="Path 23" d="M661.991,383.654a41.469,41.469,0,0,1,57.927-8.563,41.471,41.471,0,1,0-57.927,8.563Z" transform="translate(-425.401 -189.12)" fill="#fff"/>
    <path id="Path_24" data-name="Path 24" d="M528.991,394.654a41.469,41.469,0,0,1,57.927-8.563,41.471,41.471,0,1,0-57.927,8.563Z" transform="translate(-389.163 -192.117)" fill="#fff"/>
    <circle id="Ellipse_12" data-name="Ellipse 12" cx="15.278" cy="15.278" r="15.278" transform="translate(151.989 145.825)" fill="#3f3d56"/>
    <circle id="Ellipse_13" data-name="Ellipse 13" cx="15.278" cy="15.278" r="15.278" transform="translate(250.934 134.184)" fill="#3f3d56"/>
    <circle id="Ellipse_14" data-name="Ellipse 14" cx="8.003" cy="8.003" r="8.003" transform="translate(207.282 186.567)" fill="#ff6584"/>
    <path id="Path_25" data-name="Path 25" d="M465.281,709.91V674.718H453.641V709.91A17.465,17.465,0,0,0,442,726.373h34.922a17.464,17.464,0,0,0-11.639-16.463Z" transform="translate(-370.039 -288.808)" fill="#3f3d56"/>
    <path id="Path_26" data-name="Path 26" d="M524.281,709.91V674.718H512.641V709.91A17.465,17.465,0,0,0,501,726.373h34.922a17.464,17.464,0,0,0-11.639-16.463Z" transform="translate(-386.115 -288.808)" fill="#3f3d56"/>
    <path id="Path_27" data-name="Path 27" d="M551.9,220.035c-5.274-8.492-8.817-18.467-7.72-28.4s7.607-19.632,17.189-22.479,21.453,3.052,23.259,12.884a80.849,80.849,0,0,1,42.836-35.676c8.375-2.951,19.5-3.62,24.347,3.823,2.4,3.684,2.653,8.692,5.864,11.693,5.033,4.7,13.1,1.391,19.982,1.793,9.672.565,17.458,9.592,18.676,19.2s-3.039,19.271-9.322,26.645-14.457,12.845-22.52,18.218" transform="translate(-397.825 -144.282)" fill="#3f3d56"/>
    <path id="Path_28" data-name="Path 28" d="M656.035,446.314c.521-.551,1.059-1.084,1.621-1.593q.373-.338.758-.662.24-.2.485-.4c.282-.227.371-.283.029-.029a31.73,31.73,0,0,1,3.9-2.5q.938-.5,1.909-.943c.152-.069.306-.135.458-.2-.686.305-.148.063.028-.008q.583-.234,1.174-.445a33.728,33.728,0,0,1,4.479-1.258c.7-.146,1.405-.259,2.112-.372.476-.076-.6.066-.12.017.209-.022.418-.049.627-.071q.628-.065,1.258-.108a35.2,35.2,0,0,1,4.545-.016c.756.046,1.509.123,2.261.212-.759-.09.11.021.377.064q.621.1,1.239.227a33.119,33.119,0,0,1,4.36,1.194q.533.186,1.058.391c.195.076.388.155.582.233-.1-.04-.638-.283-.091-.035.685.311,1.363.631,2.027.984a32.016,32.016,0,0,1,3.906,2.49c.378.277-.425-.352-.067-.049.16.136.327.264.488.4q.387.324.763.662c.64.577,1.254,1.183,1.845,1.81q.809.859,1.557,1.773c-.007-.008.561.7.259.316-.254-.319.1.139.162.215q.452.6.877,1.229a38.1,38.1,0,0,1,2.5,4.245q.528,1.042,1,2.112c.069.157.307.735.049.105.07.17.14.341.208.512q.257.643.5,1.293a60.866,60.866,0,0,1,2.628,9.782q.238,1.268.435,2.543.089.569.169,1.139c0-.01.125.926.059.422-.058-.449.042.339.053.424.221,1.772.4,3.549.536,5.329.277,3.491.425,6.991.531,10.491.27,8.88.5,17.761.748,26.641l1.526,54.393,1.526,54.393.189,6.752a3.274,3.274,0,0,0,6.548,0l-1.568-55.894-1.557-55.519-.784-27.947a177.678,177.678,0,0,0-1.663-22.366c-2.121-13.644-8.283-27.827-21.456-34.022-12.3-5.786-27.531-4.444-38.31,3.97a30.1,30.1,0,0,0-3.356,3.042,3.274,3.274,0,0,0,4.63,4.63Z" transform="translate(-426.834 -222.443)" fill="#2196f3"/>
    <path id="Path_29" data-name="Path 29" d="M690.638,593.718A3.642,3.642,0,0,0,687,597.356l7.274,110.538a3.654,3.654,0,0,0,3.639,3.685h59.658a3.642,3.642,0,0,0,3.638-3.638l7.277-110.632a3.634,3.634,0,0,0-3.639-3.59Z" transform="translate(-436.794 -266.738)" fill="#e6e6e6"/>
    <path id="Path_30" data-name="Path 30" d="M698.554,601.218a3.638,3.638,0,0,0-3.629,3.881l6.689,99.672a3.648,3.648,0,0,0,3.629,3.395h49.312a3.648,3.648,0,0,0,3.629-3.395l6.689-99.672a3.638,3.638,0,0,0-3.629-3.881Z" transform="translate(-438.951 -268.781)" fill="#2196f3"/>
    <path id="Path_31" data-name="Path 31" d="M729.455,624.718A1.457,1.457,0,0,0,728,626.173v8a1.457,1.457,0,0,0,1.455,1.455h12.368a1.457,1.457,0,0,0,1.455-1.455v-8a1.457,1.457,0,0,0-1.455-1.455Z" transform="translate(-447.965 -275.184)" fill="#e6e6e6"/>
    <path id="Path_32" data-name="Path 32" d="M748.455,653.718A1.457,1.457,0,0,0,747,655.173v8a1.457,1.457,0,0,0,1.455,1.455h12.368a1.457,1.457,0,0,0,1.455-1.455v-8a1.457,1.457,0,0,0-1.455-1.455Z" transform="translate(-453.142 -283.086)" fill="#e6e6e6"/>
    <path id="Path_33" data-name="Path 33" d="M730.455,677.718A1.457,1.457,0,0,0,729,679.173v8a1.457,1.457,0,0,0,1.455,1.455h12.368a1.457,1.457,0,0,0,1.455-1.455v-8a1.457,1.457,0,0,0-1.455-1.455Z" transform="translate(-448.237 -289.625)" fill="#e6e6e6"/>
    <path id="Path_34" data-name="Path 34" d="M407.746,596.641c3.786,1.256,6.452,4.477,8.67,7.634,2.287,3.255,4.383,6.788,7.508,9.331a12.269,12.269,0,0,0,9.66,2.9,7.829,7.829,0,0,0,6.853-6.445c.686-4.653-2.57-8.959-5.427-12.269l-.772,1.863c4.551.491,8.508,3.085,12.676,4.756,3.993,1.6,8.716,2.473,12.706.387a11.525,11.525,0,0,0,5.616-8.122,16.706,16.706,0,0,0-1.574-10.636c-2.124-4.342-5.606-7.85-8.983-11.23l-1.062,1.824c5.022.754,10.621,1.457,14.978-1.77a8.88,8.88,0,0,0,3.5-5.111,9.877,9.877,0,0,0-1.067-6.69c-2.291-4.462-6.616-7.608-10.493-10.6a152.979,152.979,0,0,0-29.216-17.759c-1.266-.588-2.376,1.292-1.1,1.885a153.839,153.839,0,0,1,25.3,14.828c3.82,2.763,7.858,5.611,11.041,9.115,2.7,2.975,5.164,7.525,2.213,11.2-3.472,4.326-9.755,3.52-14.572,2.8a1.1,1.1,0,0,0-1.062,1.824c5.034,5.037,11.013,11.083,10.138,18.835a9.866,9.866,0,0,1-4.341,7.494c-3.555,2.113-8,1.025-11.581-.435-4.347-1.773-8.352-4.262-13.112-4.775-1.026-.111-1.323,1.224-.772,1.863,2.31,2.676,5.08,6.158,4.875,9.911-.172,3.14-2.909,5.018-5.845,5.2-7.468.452-11.238-7.324-15.025-12.422-2.4-3.227-5.24-6.191-9.146-7.487-1.336-.443-1.909,1.664-.58,2.1Z" transform="translate(-360.501 -250.628)" fill="#2196f3"/>
  </g>
</svg>
